<?xml version="1.0" encoding="utf-8"?>
<!-- Generator: Adobe Illustrator 16.0.0, SVG Export Plug-In . SVG Version: 6.00 Build 0)  -->
<!DOCTYPE svg PUBLIC "-//W3C//DTD SVG 1.1//EN" "http://www.w3.org/Graphics/SVG/1.1/DTD/svg11.dtd">
<svg version="1.1" id="Layer_1" xmlns="http://www.w3.org/2000/svg" xmlns:xlink="http://www.w3.org/1999/xlink" x="0px" y="0px"
	 width="20px" height="20px" viewBox="0 0 20 20" enable-background="new 0 0 20 20" xml:space="preserve">
<path fill="#7D4C9D" d="M13.398,2.269c-0.564-0.46-0.955-0.352-1.518,0.652c-0.371,0.664-0.963,0.744-1.326,0.723l0.002-0.133
	c0.421-0.208,0.716-0.632,0.716-1.132c0-0.707-0.57-1.274-1.273-1.274S8.724,1.672,8.724,2.378c0,0.5,0.296,0.924,0.718,1.13
	l0.002,0.134C9.082,3.664,8.488,3.584,8.116,2.92C7.556,1.917,7.164,1.808,6.604,2.269c-0.564,0.46-2.788,3.119-5.5,2.876
	c0,0,0.537,1.22,2.003,0.949c0,0,0.783,0.813,2.054,0.244c0,0,0.66,0.595,1.71,0.054c0,0,0.781,0.598,1.614,0.081
	c0,0,0.471,0.341,0.992,0.252l0.035,3.069c-0.06-0.01-0.107-0.025-0.169-0.036C9.339,9.756,8.432,9.562,7.471,9.292
	C6.547,9.05,5.532,8.656,5.382,8.452C5.396,8.44,5.416,8.43,5.442,8.418c0.083-0.044,0.223-0.088,0.39-0.123
	c0.339-0.07,0.799-0.104,1.261-0.123C8.012,8.14,8.178,8.18,8.194,8.182c0-0.028,0.531,0.062,0.678-0.477
	C8.866,7.7,8.882,7.678,8.873,7.665c-0.03-0.372-0.316-0.391-0.551-0.433c-0.38-0.051-0.182-0.029-0.694-0.024
	C6.787,7.27,4.196,7.061,3.869,8.425c0,0.038-0.002,0.063-0.007,0.096c0.109,1.188,2.569,1.703,4.351,2.06
	c-0.604,0.413-0.928,0.953-1.057,1.646c-0.062,0.744,0.529,1.451,1.898,2.24c-1.04,0.738-1.724,1.43-1.668,2.266
	c0.098,0.68,0.698,1.592,1.881,2.164c0.003,0.002,0.004,0,0.006,0l0,0c0,0,0.001,0,0.004,0c0,0-0.828-1.262-0.883-1.951
	c-0.055-0.404,0.175-1,1.181-1.717l0.028,2.523h0.004c0.007,0.213,0.173,0.385,0.382,0.385c0.208,0,0.374-0.172,0.38-0.385h0.003
	l0.034-2.457c0.927,0.686,1.136,1.258,1.083,1.65c-0.055,0.689-0.882,1.951-0.882,1.951c0.002,0,0.002,0,0.002,0
	s0.004,0.002,0.009,0c1.18-0.572,1.784-1.484,1.879-2.164c0.055-0.836-0.629-1.527-1.668-2.266c1.369-0.789,1.961-1.496,1.898-2.24
	c-0.129-0.693-0.451-1.234-1.057-1.646c1.781-0.356,4.24-0.872,4.35-2.06c-0.006-0.033-0.008-0.058-0.008-0.096
	c-0.326-1.364-2.918-1.155-3.76-1.218c-0.512-0.005-0.312-0.026-0.693,0.024c-0.234,0.042-0.52,0.062-0.549,0.433
	c-0.01,0.013,0.006,0.036,0.002,0.04c0.145,0.54,0.676,0.449,0.676,0.477c0.016-0.002,0.182-0.042,1.102-0.009
	c0.461,0.019,0.92,0.053,1.26,0.123c0.17,0.035,0.307,0.079,0.391,0.123c0.025,0.012,0.049,0.022,0.062,0.034
	c-0.15,0.204-1.166,0.598-2.092,0.839c-0.961,0.271-1.868,0.465-1.871,0.466c-0.023,0.004-0.042,0.01-0.065,0.014l0.041-3.047
	c0.526,0.092,0.999-0.252,0.999-0.252c0.832,0.517,1.615-0.081,1.615-0.081c1.049,0.542,1.709-0.054,1.709-0.054
	c1.27,0.569,2.053-0.244,2.053-0.244c1.465,0.271,2.004-0.949,2.004-0.949C16.186,5.387,13.961,2.729,13.398,2.269z M8.335,12.463
	c0.018-0.268-0.074-0.906,1.191-1.371l0.029,2.535c-0.244-0.152-0.497-0.312-0.754-0.475C8.462,12.941,8.304,12.656,8.335,12.463z
	 M11.08,13.152c-0.221,0.141-0.439,0.277-0.652,0.412l0.032-2.432c1.155,0.463,1.069,1.072,1.089,1.33
	C11.578,12.656,11.42,12.941,11.08,13.152z"/>
</svg>
