<?xml version="1.0" encoding="utf-8"?>
<!-- Generator: Adobe Illustrator 16.0.0, SVG Export Plug-In . SVG Version: 6.00 Build 0)  -->
<!DOCTYPE svg PUBLIC "-//W3C//DTD SVG 1.1//EN" "http://www.w3.org/Graphics/SVG/1.1/DTD/svg11.dtd">
<svg version="1.1" id="Layer_1" xmlns="http://www.w3.org/2000/svg" xmlns:xlink="http://www.w3.org/1999/xlink" x="0px" y="0px"
	 width="20px" height="20px" viewBox="-0.5 -1.5 20 20" enable-background="new -0.5 -1.5 20 20" xml:space="preserve">
<path fill="#1AB4AC" d="M6.59,1.15c1.543,0,2.799,1.256,2.799,2.799v1.602c0,1.543-1.256,2.799-2.799,2.799H4.989
	c-1.543,0-2.799-1.256-2.799-2.799V3.949c0-1.543,1.256-2.799,2.799-2.799H6.59 M8.287,1.25c-0.494-0.312-1.073-0.5-1.696-0.5H4.989
	C3.23,0.75,1.79,2.19,1.79,3.949v1.602c0,1.69,1.335,3.073,3,3.179v7.521h4v-3h2v3h4v-15L8.287,1.25L8.287,1.25z M5.79,10.75v-2h0.8
	c0.424,0,0.828-0.088,1.199-0.239v2.239H5.79z M10.79,10.75h-2V7.859C8.827,7.824,8.863,7.787,8.899,7.75h1.891V10.75z M10.79,5.75
	H9.769C9.774,5.683,9.79,5.619,9.79,5.551V3.949c0-0.424-0.088-0.828-0.239-1.199h1.239V5.75z M13.79,10.75h-2v-3h2V10.75z
	 M13.79,5.75h-2v-3h2V5.75z M8.124,3.123L7.417,2.416L5.79,4.043L4.163,2.416L3.456,3.123L5.083,4.75L3.456,6.377l0.707,0.707
	L5.79,5.457l1.627,1.627l0.707-0.707L6.497,4.75L8.124,3.123z"/>
</svg>
