<?xml version="1.0" encoding="utf-8"?>
<!-- Generator: Adobe Illustrator 16.0.0, SVG Export Plug-In . SVG Version: 6.00 Build 0)  -->
<!DOCTYPE svg PUBLIC "-//W3C//DTD SVG 1.1//EN" "http://www.w3.org/Graphics/SVG/1.1/DTD/svg11.dtd">
<svg version="1.1" id="Layer_1" xmlns="http://www.w3.org/2000/svg" xmlns:xlink="http://www.w3.org/1999/xlink" x="0px" y="0px"
	 width="20px" height="20px" viewBox="0 0 20 20" enable-background="new 0 0 20 20" xml:space="preserve">
<path fill="#804C9B" d="M4.77,13.406l-1.361-1.359h4.545v4.545l-1.36-1.361l-2.866,2.867l-1.825-1.824L4.77,13.406z M16.275,18.098
	l1.822-1.824l-2.867-2.867l1.361-1.359h-4.543l-0.002,4.545l1.359-1.361L16.275,18.098z M18.098,3.727l-1.822-1.824L13.406,4.77
	l-1.359-1.36v4.542l4.547,0.002L15.23,6.592L18.098,3.727z M3.41,7.954h4.542l0.004-4.545L6.594,4.77L3.728,1.903L1.903,3.729
	L4.77,6.592L3.41,7.954z M9.999,8.022c-1.091,0-1.977,0.886-1.977,1.978c0,1.094,0.886,1.98,1.977,1.98
	c1.093,0,1.981-0.887,1.981-1.98C11.98,8.908,11.092,8.022,9.999,8.022z"/>
</svg>
