<?xml version="1.0" encoding="utf-8"?>
<!-- Generator: Adobe Illustrator 16.0.0, SVG Export Plug-In . SVG Version: 6.00 Build 0)  -->
<!DOCTYPE svg PUBLIC "-//W3C//DTD SVG 1.1//EN" "http://www.w3.org/Graphics/SVG/1.1/DTD/svg11.dtd">
<svg version="1.1" id="Layer_1" xmlns="http://www.w3.org/2000/svg" xmlns:xlink="http://www.w3.org/1999/xlink" x="0px" y="0px"
	 width="20px" height="20px" viewBox="-0.5 -1.5 20 20" enable-background="new -0.5 -1.5 20 20" xml:space="preserve">
<path fill="#1AB4AC" d="M15.055,11.917l0.86,1.001L0,12.923l0.195-1.229l1.748-0.971l-0.271-2.06L3.99,8.46l0.12-1.072l2.694-0.231
	l0.155-1.925l0.463-0.616L8.5,4.848l0.125,1.026l1.725-0.108l0.108,1.939l1.938,0.755l0.108,1.508
	c0.166,0.231,1.013-0.139,1.159,0.076c0.15,0.217-0.135-0.213,0,0c-0.189,0.894,1.133,1.045,1.133,1.045L15.055,11.917z
	 M12.949,5.452l-0.812-0.275c-0.277,0.212-0.378,0.434-0.299,0.665l0.407,0.468l0.612-0.204c0.222-0.074,0.297-0.214,0.231-0.411
	C13.066,5.626,13.021,5.543,12.949,5.452z M12.432,3.293c-0.179-0.087-0.363-0.101-0.564-0.036c-0.105,0.036-0.217,0.105-0.34,0.211
	l0.033,0.961l0.933-0.116c0.243-0.278,0.336-0.504,0.28-0.678C12.725,3.498,12.613,3.383,12.432,3.293z M15.29,4.628l0.005,0.019
	c-0.035,0.012-0.204-0.027-0.508-0.123c-0.146-0.051-0.295-0.106-0.443-0.164c-0.211,0.071-0.342,0.282-0.393,0.628
	c-0.051,0.349-0.016,0.7,0.099,1.048c0.031,0.095,0.104,0.199,0.22,0.317l0.201,0.187l0.342-0.019
	C15.2,6.353,15.42,6.261,15.48,6.24c0.14-0.084,0.233-0.26,0.281-0.523c0.049-0.264,0.03-0.516-0.053-0.761
	C15.616,4.677,15.479,4.566,15.29,4.628z M13.788,7.492l-0.202,0.731c0.148,0.131,0.366,0.222,0.652,0.265L14.92,8.26l-0.345-1.032
	L13.788,7.492z M17.252,6.174l-0.203,0.731c0.151,0.131,0.366,0.222,0.655,0.266l0.681-0.228L18.039,5.91L17.252,6.174z
	 M17.754,11.663l-0.202,0.729c0.151,0.133,0.366,0.223,0.654,0.267l0.683-0.228l-0.347-1.033L17.754,11.663z M17.562,8.417
	c-0.396-0.439-0.883-0.562-1.465-0.368l-0.086,0.028c-0.275,0.244-0.502,0.599-0.693,1.059c-0.186,0.438-0.238,0.783-0.154,1.035
	c0.007,0.021,0.188,0.185,0.538,0.5c0.373,0.306,0.58,0.509,0.624,0.612l1.104-0.369c0.127-0.042,0.25-0.102,0.368-0.18
	c0.12-0.076,0.22-0.166,0.302-0.262c0.08-0.097,0.139-0.195,0.178-0.293c0.035-0.098,0.041-0.188,0.01-0.279
	C18.046,9.186,17.805,8.691,17.562,8.417z"/>
</svg>
