<?xml version="1.0" encoding="utf-8"?>
<!-- Generator: Adobe Illustrator 16.0.0, SVG Export Plug-In . SVG Version: 6.00 Build 0)  -->
<!DOCTYPE svg PUBLIC "-//W3C//DTD SVG 1.1//EN" "http://www.w3.org/Graphics/SVG/1.1/DTD/svg11.dtd">
<svg version="1.1" id="Layer_1" xmlns="http://www.w3.org/2000/svg" xmlns:xlink="http://www.w3.org/1999/xlink" x="0px" y="0px"
	 width="20px" height="20px" viewBox="-0.5 -1.5 20 20" enable-background="new -0.5 -1.5 20 20" xml:space="preserve">
<path fill="#1AB4AC" d="M6.551,1.619H4.949c-1.543,0-2.799,1.256-2.799,2.799V6.02c0,1.543,1.256,2.799,2.799,2.799h1.602
	c1.543,0,2.799-1.256,2.799-2.799V4.418C9.35,2.875,8.094,1.619,6.551,1.619 M6.457,5.219l1.627,1.627L7.377,7.553L5.75,5.926
	L4.123,7.553L3.416,6.846l1.627-1.627L3.416,3.592l0.707-0.707L5.75,4.512l1.627-1.627l0.707,0.707L6.457,5.219z M17.25,10.156
	h-1.875v5.625h-4.688v-3.75H8.812v3.75H4.125v-5.625H2.25l1.284-1.284C2.483,8.346,1.75,7.269,1.75,6.02V4.418
	c0-1.759,1.44-3.199,3.199-3.199h1.602c1.249,0,2.326,0.733,2.853,1.784L9.75,2.656L17.25,10.156z"/>
</svg>
