<?xml version="1.0" encoding="utf-8"?>
<!-- Generator: Adobe Illustrator 16.0.3, SVG Export Plug-In . SVG Version: 6.00 Build 0)  -->
<!DOCTYPE svg PUBLIC "-//W3C//DTD SVG 1.1//EN" "http://www.w3.org/Graphics/SVG/1.1/DTD/svg11.dtd">
<svg version="1.1" id="Layer_1" xmlns="http://www.w3.org/2000/svg" xmlns:xlink="http://www.w3.org/1999/xlink" x="0px" y="0px"
	 width="300px" height="171.95px" viewBox="0 0 300 171.95" enable-background="new 0 0 300 171.95" xml:space="preserve">
<g>
	<g>
		<rect fill="#FFFFFF" width="300" height="171.95"/>
		<g>
			<polygon fill="#EC1C24" points="76.708,103.107 37.679,103.107 37.679,69.653 76.708,69.653 76.705,69.632 76.705,30.606 
				110.157,30.606 110.157,69.632 110.156,69.649 149.184,69.649 149.184,103.101 110.156,103.101 110.157,103.094 110.157,142.122 
				76.705,142.122 76.705,103.094 			"/>
			<g>
				<path fill="#EC1C24" d="M200.938,85.766c0-25.99,21.071-47.063,47.063-47.063c5.788,0,11.328,1.049,16.447,2.959
					c-9.624-7.618-21.787-12.167-35.017-12.167c-31.188,0-56.476,25.285-56.476,56.474c0,31.19,25.287,56.471,56.476,56.471
					c13.671,0,26.208-4.854,35.978-12.937c-5.387,2.145-11.259,3.326-17.408,3.326C222.009,132.83,200.938,111.758,200.938,85.766z"
					/>
			</g>
			<rect x="13.764" y="12.66" fill="none" stroke="#EC1C24" stroke-width="2" width="274.801" height="147.375"/>
		</g>
	</g>
</g>
<g>
</g>
<g>
</g>
<g>
</g>
<g>
</g>
<g>
</g>
<g>
</g>
<g>
</g>
<g>
</g>
<g>
</g>
<g>
</g>
<g>
</g>
<g>
</g>
<g>
</g>
<g>
</g>
<g>
</g>
</svg>
