<?xml version="1.0" encoding="utf-8"?>
<!-- Generator: Adobe Illustrator 16.0.0, SVG Export Plug-In . SVG Version: 6.00 Build 0)  -->
<!DOCTYPE svg PUBLIC "-//W3C//DTD SVG 1.1//EN" "http://www.w3.org/Graphics/SVG/1.1/DTD/svg11.dtd">
<svg version="1.1" id="Layer_1" xmlns="http://www.w3.org/2000/svg" xmlns:xlink="http://www.w3.org/1999/xlink" x="0px" y="0px"
	 width="20px" height="20px" viewBox="0 0 20 20" enable-background="new 0 0 20 20" xml:space="preserve">
<path fill="#7D4C9D" d="M15.814,13.808c0.861,0,1.753,0.675,1.987,1.501l0.339,1.195c0.234,0.826-0.28,1.503-1.139,1.498
	L3.009,17.994c-0.858,0-1.378-0.679-1.156-1.507l0.32-1.172c0.223-0.833,1.111-1.508,1.969-1.508H15.814z M17.837,12.209v-10
	c0-0.363-0.294-0.656-0.656-0.656H2.821c-0.362,0-0.657,0.292-0.657,0.656v10c0,0.363,0.294,0.654,0.657,0.654h14.36
	C17.543,12.863,17.837,12.572,17.837,12.209z M3.475,2.864h13.05v8.691H3.475V2.864z M10.696,8.847
	c0.656-0.278,1.08-0.916,1.08-1.653c0-0.711-0.424-1.349-1.08-1.627c-0.172-0.07-0.373,0.009-0.446,0.182
	c-0.072,0.173,0.009,0.374,0.182,0.446c0.402,0.169,0.662,0.562,0.662,1.025c0,0.438-0.26,0.83-0.662,0.999
	c-0.173,0.074-0.254,0.275-0.182,0.447c0.056,0.129,0.182,0.209,0.314,0.209C10.608,8.875,10.653,8.864,10.696,8.847z M11.936,9.667
	c0.846-0.532,1.35-1.448,1.35-2.473c0-0.999-0.504-1.913-1.348-2.446c-0.158-0.096-0.369-0.054-0.47,0.107
	c-0.101,0.158-0.053,0.369,0.104,0.469c0.646,0.408,1.031,1.106,1.031,1.896c0,0.765-0.385,1.465-1.029,1.87
	c-0.159,0.102-0.207,0.311-0.106,0.47c0.064,0.102,0.175,0.16,0.288,0.16C11.818,9.72,11.881,9.703,11.936,9.667z M12.661,10.776
	c1.256-0.762,2.005-2.089,2.005-3.582c0-1.465-0.749-2.792-2.005-3.554c-0.159-0.093-0.369-0.044-0.468,0.116
	c-0.097,0.161-0.046,0.369,0.115,0.468c1.05,0.636,1.677,1.746,1.677,2.997c0,1.225-0.627,2.338-1.677,2.974
	c-0.161,0.098-0.212,0.305-0.115,0.467c0.063,0.105,0.176,0.166,0.291,0.166C12.545,10.826,12.605,10.809,12.661,10.776z
	 M9.75,8.666c0.073-0.171-0.008-0.373-0.181-0.447C9.167,8.05,8.907,7.658,8.907,7.194c0-0.438,0.26-0.83,0.662-0.999
	C9.742,6.123,9.823,5.923,9.75,5.75C9.676,5.576,9.476,5.498,9.304,5.567C8.648,5.845,8.225,6.483,8.225,7.22
	c0,0.711,0.423,1.349,1.079,1.627c0.042,0.017,0.089,0.028,0.132,0.028C9.569,8.875,9.695,8.795,9.75,8.666z M8.532,9.56
	c0.1-0.159,0.053-0.368-0.107-0.47C7.782,8.685,7.396,7.985,7.396,7.194c0-0.764,0.386-1.462,1.031-1.87
	c0.158-0.1,0.206-0.312,0.105-0.469c-0.1-0.161-0.312-0.203-0.469-0.107C7.219,5.282,6.715,6.195,6.715,7.22
	c0,0.999,0.504,1.915,1.349,2.447C8.12,9.703,8.183,9.72,8.244,9.72C8.358,9.72,8.467,9.662,8.532,9.56z M7.807,10.661
	c0.098-0.162,0.046-0.369-0.115-0.467c-1.051-0.636-1.676-1.749-1.676-3c0-1.225,0.625-2.335,1.676-2.971
	c0.161-0.099,0.212-0.307,0.115-0.468C7.708,3.596,7.499,3.547,7.339,3.64C6.084,4.403,5.335,5.729,5.335,7.22
	c0,1.465,0.749,2.794,2.004,3.556c0.056,0.033,0.115,0.05,0.177,0.05C7.631,10.826,7.743,10.766,7.807,10.661z"/>
</svg>
