<?xml version="1.0" encoding="utf-8"?>
<!-- Generator: Adobe Illustrator 16.0.0, SVG Export Plug-In . SVG Version: 6.00 Build 0)  -->
<!DOCTYPE svg PUBLIC "-//W3C//DTD SVG 1.1//EN" "http://www.w3.org/Graphics/SVG/1.1/DTD/svg11.dtd">
<svg version="1.1" id="Layer_1" xmlns="http://www.w3.org/2000/svg" xmlns:xlink="http://www.w3.org/1999/xlink" x="0px" y="0px"
	 width="20px" height="20px" viewBox="0 0 20 20" enable-background="new 0 0 20 20" xml:space="preserve">
<path fill="#7D4C9D" d="M16.902,3.029c0-0.099-0.088-0.177-0.266-0.223L16.26,2.672c-0.428-0.165-0.689-0.243-0.789-0.243
	c-0.014,0-0.088,0.016-0.227,0.056c-0.141,0.036-0.352,0.104-0.643,0.207c-0.023,0.011-0.189,0.045-0.49,0.101
	c-0.299,0.057-0.756,0.147-1.357,0.276L6.778,0.938C6.767,0.925,6.725,0.92,6.647,0.92c-0.213,0-0.396,0.1-0.548,0.3l3.808,2.335
	L8.627,3.803L7.515,2.918L7.213,2.974v0.698L5.93,3.183L5.685,3.333L6.817,4.33v0.056c0,0.177,0.118,0.265,0.357,0.265l0.569,0.697
	l0.28-0.092l0.096-0.508h2.977l0.623,0.472v1.509h0.564l1.152-2.492c0.387-0.06,0.797-0.141,1.223-0.234
	c0.43-0.095,0.885-0.192,1.377-0.291c0.086-0.038,0.18-0.085,0.281-0.143c0.102-0.056,0.195-0.116,0.285-0.179
	c0.086-0.062,0.158-0.124,0.215-0.188C16.873,3.137,16.902,3.08,16.902,3.029z M14.619,15.887h-0.164v-0.421
	c0-0.76-0.045-1.464-0.139-2.1c-0.004-0.011-0.004-0.021-0.01-0.03V9.101h-0.25V8.116h-0.338v0.984h-0.254v2.891
	c-0.059-0.038-0.119-0.075-0.188-0.111V8.922c0-0.241-1.15-0.992-3.911-0.992c-2.766,0-3.885,0.751-3.885,0.992v2.982
	c-0.536,0.294-0.865,0.781-0.992,1.462c-0.095,0.636-0.139,1.34-0.139,2.1v0.421H4.187c-0.171,0-0.256,0.232-0.256,0.697
	c0,0.451,0.085,0.677,0.256,0.677h1.072v0.21c0,0.312,0.013,0.569,0.037,0.77c0.021,0.201,0.05,0.364,0.083,0.488
	c0.137,0.233,0.395,0.351,0.768,0.351c0.356,0,0.606-0.117,0.748-0.351c0.09-0.188,0.139-0.559,0.139-1.114v-0.354h4.741v0.354
	c0,0.556,0.047,0.927,0.139,1.114c0.141,0.233,0.389,0.351,0.746,0.351c0.373,0,0.631-0.117,0.771-0.351
	c0.029-0.124,0.059-0.287,0.08-0.488c0.023-0.2,0.035-0.457,0.035-0.77v-0.21h1.074c0.168,0,0.256-0.226,0.256-0.677
	C14.875,16.119,14.787,15.887,14.619,15.887z M6.335,15.053c-0.386,0-0.7-0.313-0.7-0.697s0.314-0.695,0.7-0.695
	c0.381,0,0.695,0.312,0.695,0.695S6.716,15.053,6.335,15.053z M6.758,11.943c-0.241,0-0.44-0.196-0.44-0.44v-0.988
	c0-0.245,0.175-0.46,0.44-0.582c0,0,1.069-0.365,2.645-0.365s2.65,0.365,2.65,0.365c0.348,0.174,0.438,0.467,0.438,0.712v0.858
	c0,0.244-0.195,0.44-0.438,0.44H6.758z M11.236,15.159H7.569c-0.069,0-0.125-0.055-0.125-0.124c0-0.067,0.056-0.124,0.125-0.124
	h3.667c0.068,0,0.123,0.057,0.123,0.124C11.359,15.104,11.305,15.159,11.236,15.159z M11.236,14.459H7.569
	c-0.069,0-0.125-0.055-0.125-0.123s0.056-0.125,0.125-0.125h3.667c0.068,0,0.123,0.057,0.123,0.125S11.305,14.459,11.236,14.459z
	 M11.236,13.759H7.569c-0.069,0-0.125-0.058-0.125-0.125c0-0.065,0.056-0.125,0.125-0.125h3.667c0.068,0,0.123,0.06,0.123,0.125
	C11.359,13.701,11.305,13.759,11.236,13.759z M12.467,15.053c-0.385,0-0.697-0.313-0.697-0.697s0.312-0.695,0.697-0.695
	c0.383,0,0.695,0.312,0.695,0.695S12.85,15.053,12.467,15.053z"/>
</svg>
