<?xml version="1.0" encoding="utf-8"?>
<!-- Generator: Adobe Illustrator 16.0.3, SVG Export Plug-In . SVG Version: 6.00 Build 0)  -->
<!DOCTYPE svg PUBLIC "-//W3C//DTD SVG 1.1//EN" "http://www.w3.org/Graphics/SVG/1.1/DTD/svg11.dtd">
<svg version="1.1" id="watsan__x26__camp" xmlns="http://www.w3.org/2000/svg" xmlns:xlink="http://www.w3.org/1999/xlink" x="0px"
	 y="0px" width="30px" height="30px" viewBox="0 0 30 30" enable-background="new 0 0 30 30" xml:space="preserve">
<path fill="#0066FF" d="M30,23.001h-0.038v5.224H0.021v-5.224H0c1.033,0,1.715-0.583,2.254-1.89c0.009-0.038,0.021-0.067,0.04-0.1
	l0,0c0.053-0.079,0.132-0.132,0.22-0.132c0.095,0,0.17,0.053,0.218,0.132h0.009c0.001,0.015,0.006,0.018,0.012,0.029
	c0.009,0.021,0.016,0.032,0.023,0.053c0.539,1.321,1.219,1.907,2.259,1.907h0.004c1.033,0,1.717-0.583,2.256-1.89
	c0.007-0.038,0.019-0.067,0.038-0.1h0.003c0.05-0.079,0.127-0.132,0.221-0.132c0.091,0,0.168,0.053,0.218,0.132H7.78
	c0.001,0.015,0.007,0.018,0.012,0.029c0.009,0.021,0.016,0.032,0.022,0.053c0.53,1.292,1.197,1.875,2.197,1.898
	c0.998-0.023,1.664-0.604,2.191-1.881c0.01-0.038,0.025-0.067,0.041-0.1l0,0c0.054-0.079,0.129-0.132,0.22-0.132
	c0.089,0,0.167,0.053,0.223,0.132h0.001c0.004,0.015,0.009,0.018,0.012,0.029c0.009,0.021,0.021,0.032,0.026,0.053
	c0.539,1.321,1.217,1.907,2.26,1.907h0.007c1.033,0,1.71-0.583,2.249-1.89c0.011-0.038,0.024-0.067,0.041-0.1l0,0
	c0.053-0.079,0.129-0.132,0.22-0.132s0.17,0.053,0.223,0.132h0.002c0.004,0.015,0.012,0.018,0.014,0.029
	c0.01,0.021,0.018,0.032,0.023,0.053c0.532,1.301,1.2,1.884,2.213,1.901c1.004-0.018,1.672-0.601,2.205-1.884
	c0.008-0.038,0.021-0.067,0.04-0.1l0,0c0.053-0.079,0.128-0.132,0.218-0.132c0.094,0,0.172,0.053,0.221,0.132h0.006
	c0.002,0.015,0.008,0.018,0.016,0.029c0.006,0.021,0.014,0.032,0.021,0.053c0.538,1.321,1.219,1.907,2.259,1.907h0.008
	c1.033,0,1.713-0.583,2.251-1.89c0.009-0.038,0.022-0.067,0.041-0.1l0,0c0.053-0.079,0.13-0.132,0.222-0.132
	c0.094,0,0.17,0.053,0.219,0.132h0.004c0.006,0.015,0.01,0.018,0.018,0.029c0.004,0.021,0.013,0.032,0.018,0.053
	C28.281,22.415,28.96,23.001,30,23.001z M24.261,14.657c0,0.396-0.07,0.768-0.226,1.11c-0.155,0.346-0.357,0.642-0.618,0.896
	c-0.252,0.264-0.56,0.469-0.908,0.618c-0.354,0.155-0.729,0.231-1.131,0.231h-0.287v0.627c0,0.416-0.135,0.756-0.413,1.025
	c-0.275,0.27-0.615,0.398-1.014,0.398h-6.457c-0.398,0-0.738-0.129-1.011-0.398c-0.275-0.27-0.419-0.609-0.419-1.025v-6.369h9.601
	c0.401,0,0.776,0.076,1.131,0.229c0.349,0.152,0.656,0.354,0.908,0.612c0.261,0.255,0.463,0.563,0.618,0.911
	C24.19,13.881,24.261,14.253,24.261,14.657z M23.124,14.657c0-0.498-0.167-0.908-0.504-1.248c-0.337-0.328-0.747-0.492-1.242-0.492
	h-0.287v3.451h0.287c0.495,0,0.905-0.167,1.242-0.501S23.124,15.132,23.124,14.657z M17.529,7.939
	c-0.045-3.349-2.594-6.149-5.863-6.164C8.37,1.79,5.801,4.632,5.792,8.019v11.514h2.08V8.019c0.003-2.344,1.772-4.16,3.794-4.16
	c1.992,0,3.744,1.778,3.784,4.081h-1.616l2.713,2.716l2.716-2.716H17.529z"/>
<g>
</g>
<g>
</g>
<g>
</g>
<g>
</g>
<g>
</g>
<g>
</g>
<g>
</g>
<g>
</g>
<g>
</g>
<g>
</g>
<g>
</g>
<g>
</g>
<g>
</g>
<g>
</g>
<g>
</g>
</svg>
