<?xml version="1.0" encoding="utf-8"?>
<!-- Generator: Adobe Illustrator 16.0.0, SVG Export Plug-In . SVG Version: 6.00 Build 0)  -->
<!DOCTYPE svg PUBLIC "-//W3C//DTD SVG 1.1//EN" "http://www.w3.org/Graphics/SVG/1.1/DTD/svg11.dtd">
<svg version="1.1" id="Layer_1" xmlns="http://www.w3.org/2000/svg" xmlns:xlink="http://www.w3.org/1999/xlink" x="0px" y="0px"
	 width="20px" height="20px" viewBox="0 0 20 20" enable-background="new 0 0 20 20" xml:space="preserve">
<path fill="#7C4B9D" d="M9.374,13.82l3.264-2.707l0.974,0.991l-4.265,4.264l-2.523-2.524l1.338-1.34L9.374,13.82z M12.647,6.31
	l-1.021-1.02L9.793,7.122L7.959,5.291l-1.024,1.02L8.77,8.145L6.935,9.98l1.024,1.021l1.834-1.832l1.833,1.832l1.021-1.021
	l-1.832-1.835L12.647,6.31z M16.358,2.429v16.008H3.894V2.429h2.539V2.021h2.048c0.184-0.739,0.846-1.292,1.644-1.292
	c0.797,0,1.46,0.553,1.646,1.292h2.048v0.408H16.358z M9.36,2.021h1.535c-0.153-0.276-0.433-0.47-0.768-0.47
	C9.79,1.552,9.508,1.745,9.36,2.021z M14.986,3.745h-1.167v0.811H6.433V3.745H5.268v13.378h9.721L14.986,3.745L14.986,3.745z"/>
</svg>
