<?xml version="1.0" encoding="utf-8"?>
<!-- Generator: Adobe Illustrator 16.0.0, SVG Export Plug-In . SVG Version: 6.00 Build 0)  -->
<!DOCTYPE svg PUBLIC "-//W3C//DTD SVG 1.1//EN" "http://www.w3.org/Graphics/SVG/1.1/DTD/svg11.dtd">
<svg version="1.1" id="Layer_1" xmlns="http://www.w3.org/2000/svg" xmlns:xlink="http://www.w3.org/1999/xlink" x="0px" y="0px"
	 width="20px" height="20px" viewBox="0 0 20 20" enable-background="new 0 0 20 20" xml:space="preserve">
<path fill="#7D4C9D" d="M17.521,7.259L10,3.521L2.48,7.259L1.798,5.886l8.19-4.073l0.004-0.01L10,1.808l0.007-0.004l0.004,0.01
	l8.191,4.073L17.521,7.259z M14.419,10.861l2.14-1.188l-0.473-0.257l-3.905-2.127l-2.152,1.173L7.816,7.259l-4.375,2.38l0.466,0.262
	l1.706,0.949l-0.021,0.011H5.591l0,0l-2.113,1.15l2.113,1.135v2.855l4.408,2.194l4.407-2.194v-2.847l2.131-1.144L14.419,10.861z
	 M12.181,7.96l3.152,1.717l-1.526,0.849l-3.188-1.713L12.181,7.96z M4.664,9.646l3.152-1.716l1.563,0.852l-3.19,1.714L4.664,9.646z
	 M4.717,12.009l1.562-0.853l3.185,1.724l-1.558,0.84L4.717,12.009z M6.182,15.634v-2.168l1.729,0.929l1.793-0.995v3.988
	L6.182,15.634z M13.819,15.634l-3.524,1.753v-3.995l1.805,1.003l1.72-0.922V15.634z M15.296,12.008l-3.19,1.712l-1.53-0.84
	l3.156-1.724L15.296,12.008z"/>
</svg>
