<?xml version="1.0" encoding="utf-8"?>
<!-- Generator: Adobe Illustrator 16.0.0, SVG Export Plug-In . SVG Version: 6.00 Build 0)  -->
<!DOCTYPE svg PUBLIC "-//W3C//DTD SVG 1.1//EN" "http://www.w3.org/Graphics/SVG/1.1/DTD/svg11.dtd">
<svg version="1.1" id="Layer_1" xmlns="http://www.w3.org/2000/svg" xmlns:xlink="http://www.w3.org/1999/xlink" x="0px" y="0px"
	 width="20px" height="20px" viewBox="4 0.083 20 20" enable-background="new 4 0.083 20 20" xml:space="preserve">
<path fill="#1AB4AC" d="M21.75,17.832l-4-14.999h-5.003c-0.494-0.312-1.073-0.5-1.696-0.5H9.449c-1.759,0-3.199,1.44-3.199,3.199
	v1.602c0,1.525,1.085,2.808,2.521,3.122L6.75,17.832H21.75z M14.75,17.285h-1v-2.002h1V17.285z M14.75,13.281h-1v-2h1V13.281z
	 M14.75,9.277h-1V8.83c0.287-0.454,0.459-0.983,0.484-1.552h0.516V9.277z M13.75,3.276h1v2.001h-0.525
	c-0.043-0.526-0.205-1.016-0.475-1.441V3.276z M6.65,7.134V5.532c0-1.543,1.256-2.799,2.799-2.799h1.602
	c1.543,0,2.8,1.256,2.8,2.799v1.602c0,1.543-1.257,2.798-2.8,2.798H9.449C7.906,9.932,6.65,8.677,6.65,7.134z M10.25,7.04
	L8.623,8.667L7.916,7.96l1.627-1.627L7.916,4.706l0.707-0.707l1.627,1.627l1.627-1.627l0.707,0.707l-1.627,1.627l1.627,1.627
	l-0.707,0.707L10.25,7.04z"/>
</svg>
