<?xml version="1.0" encoding="utf-8"?>
<!-- Generator: Adobe Illustrator 16.0.0, SVG Export Plug-In . SVG Version: 6.00 Build 0)  -->
<!DOCTYPE svg PUBLIC "-//W3C//DTD SVG 1.1//EN" "http://www.w3.org/Graphics/SVG/1.1/DTD/svg11.dtd">
<svg version="1.1" id="Layer_1" xmlns="http://www.w3.org/2000/svg" xmlns:xlink="http://www.w3.org/1999/xlink" x="0px" y="0px"
	 width="20px" height="20px" viewBox="0 0 20 20" enable-background="new 0 0 20 20" xml:space="preserve">
<path fill="#7D4C9D" d="M15.314,11.971c0.299,0.598,1.643,3.734,1.643,4.184c0,2.461-3.285,2.461-3.285,0
	C13.672,15.705,15.018,12.42,15.314,11.971z M17.256,10.302c0-0.34,0-0.903,0-1.897c0-1.203-1.092-2.24-2.539-2.24
	c0,0-0.008,0-3.38,0L11.318,5.11c0-0.303-0.246-0.551-0.551-0.551H9.446V3.883c0.115-0.068,0.209-0.153,0.29-0.256
	c0.396,0,1.2,0,2.813,0c0.189,0.242,0.467,0.408,0.797,0.408c0.561,0,1.018-0.455,1.018-1.017S13.906,2,13.346,2
	c-0.336,0-0.622,0.178-0.807,0.43c-0.444,0-1.276,0-2.791,0C9.562,2.178,9.278,2,8.941,2C8.605,2,8.319,2.178,8.135,2.43
	c-0.863,0-1.888,0-3.082,0C4.87,2.178,4.585,2,4.25,2C3.688,2,3.232,2.455,3.232,3.018S3.688,4.035,4.25,4.035
	c0.327,0,0.606-0.166,0.791-0.408c0.509,0,1.437,0,3.106,0c0.082,0.106,0.178,0.191,0.294,0.256V4.56H7.039
	c-0.303,0-0.55,0.248-0.55,0.551v1.055c-0.345,0-1.332,0-4.106,0v3.286c0.097,0,0.762,0,4.568,0
	c0.447,0.897,1.045,1.344,1.941,1.344c0.896,0,1.643-0.446,2.091-1.344c0,0,0,0,1.644,0c0.491,0,0.671,0.314,0.724,0.919
	c-0.145,0.1-0.242,0.257-0.242,0.446c0,0.302,0.246,0.55,0.549,0.55h3.41c0.305,0,0.551-0.248,0.551-0.55
	C17.617,10.578,17.467,10.379,17.256,10.302z"/>
</svg>
